<svg xmlns="http://www.w3.org/2000/svg" viewBox="0 0 1024 1024" width="1024" height="1024">
  <!-- Background with gradient -->
  <defs>
    <linearGradient id="bg-gradient" x1="0%" y1="0%" x2="100%" y2="100%">
      <stop offset="0%" style="stop-color:#3b82f6;stop-opacity:1" />
      <stop offset="100%" style="stop-color:#8b5cf6;stop-opacity:1" />
    </linearGradient>
  </defs>

  <!-- Rounded rectangle background -->
  <rect width="1024" height="1024" rx="180" fill="url(#bg-gradient)"/>

  <!-- Grid icon centered and scaled -->
  <g transform="translate(512, 512) scale(20) translate(-12, -12)">
    <path d="M10,4V8H14V4H10M16,4V8H20V4H16M16,10V14H20V10H16M16,16V20H20V16H16M14,20V16H10V20H14M8,20V16H4V20H8M8,14V10H4V14H8M8,8V4H4V8H8M10,14H14V10H10V14M4,2H20A2,2 0 0,1 22,4V20A2,2 0 0,1 20,22H4C2.92,22 2,21.1 2,20V4A2,2 0 0,1 4,2Z"
          fill="white"
          stroke="white"
          stroke-width="0.5"/>
  </g>
</svg>
